# xmcd
#
# Track frame offsets: 
#        150
#        10447
#        29429
#        50491
#        70916
#        107975
#        126424
#        148964
#        160896
#        185417
#        202663
#        220071
#        243857
#        255788
#        277665
#        298178
#        317303
#
# Disc length: 4414 seconds
#
# Revision: 1
# Processed by: cddbd v1.5.2PL0 Copyright (c) Steve Scherf et al.
# Submitted via: ExactAudioCopyFreeDBPlugin 1.0
#
DISCID=f4113c11
DTITLE=Various Artist - Dixiefrog's Roots and New 2006 [CD 1)
DYEAR=2006
DGENRE=Blues
TTITLE0=Eric Bibb - Buckets Of Rain
TTITLE1=Pura Fe' - Wait 'till You Come Back Again
TTITLE2=Taj Mahal - Honky Tonk Woman
TTITLE3=Monster Mike Welch - A Thrill To Be Alive
TTITLE4=Duke Robillard and Ronnie Earl - I Need You So Bad
TTITLE5=Bill Perry - Going Down To Memphis
TTITLE6=Magic Slim and The Teardrops - I'm A Blues Man
TTITLE7=The Dusters - Goin' Up Easy
TTITLE8=Cyril Lance and Johnny Neel - I Want The Real Thing
TTITLE9=Nublues - Mississippi Rising
TTITLE10=Sol - Black Mattie
TTITLE11=Popa Chubby - Smuggler's Game
TTITLE12=Gashouse Dave - It's A Drag Always Being Right
TTITLE13=Jimmy Tittle - Work, Work, Work
TTITLE14=Joe Sun - Dancin' Too Much
TTITLE15=Blues Conspiracy - Long As I Can See The Light
TTITLE16=George Hamilton V - Edinburgh
EXTD=
EXTT0=
EXTT1=
EXTT2=
EXTT3=
EXTT4=
EXTT5=
EXTT6=
EXTT7=
EXTT8=
EXTT9=
EXTT10=
EXTT11=
EXTT12=
EXTT13=
EXTT14=
EXTT15=
EXTT16=
PLAYORDER=
